<?xml version="1.0" encoding="UTF-8"?>
<svg width="2000px" height="2000px" viewBox="0 0 2000 2000" xmlns="http://www.w3.org/2000/svg" xmlns:xlink="http://www.w3.org/1999/xlink" version="1.1">
 <!-- Generated by Pixelmator Pro 2.0.1 -->
 <g id="New-Group">
  <path id="sun" d="M1000.435 862.259 C1076.633 862.259 1138.404 924.03 1138.404 1000.228 1138.404 1076.426 1076.633 1138.197 1000.435 1138.197 924.237 1138.197 862.466 1076.426 862.466 1000.228 862.466 924.03 924.237 862.259 1000.435 862.259 Z" fill="#000000" fill-opacity="1" stroke="none"/>
  <path id="LOADING" d="M868.665 848.027 L841.443 812.97 846.196 809.279 869.958 839.878 886.05 827.382 889.511 831.839 868.665 848.027 Z M1129.179 841.208 C1127.904 841.162 1126.554 840.965 1125.128 840.617 1123.702 840.269 1122.272 839.83 1120.841 839.302 1119.409 838.775 1118.013 838.158 1116.651 837.451 1115.29 836.743 1114.053 836.019 1112.941 835.277 1109.811 833.19 1107.368 830.806 1105.612 828.128 1103.857 825.45 1102.727 822.663 1102.224 819.765 1101.72 816.867 1101.807 813.95 1102.485 811.011 1103.164 808.073 1104.373 805.299 1106.112 802.691 1107.944 799.944 1110.128 797.709 1112.661 795.982 1115.194 794.255 1117.884 793.084 1120.73 792.47 1123.575 791.856 1126.511 791.843 1129.536 792.429 1132.562 793.015 1135.482 794.246 1138.298 796.125 1141.706 798.397 1144.203 800.679 1145.79 802.968 1147.378 805.258 1148.403 807.638 1148.866 810.107 L1142.78 811.548 C1142.224 809.068 1141.287 806.973 1139.966 805.263 1138.645 803.553 1137.045 802.072 1135.167 800.82 1133.046 799.405 1130.873 798.52 1128.648 798.166 1126.422 797.812 1124.261 797.89 1122.163 798.4 1120.065 798.91 1118.088 799.839 1116.234 801.189 1114.379 802.539 1112.778 804.223 1111.433 806.24 1110.041 808.326 1109.114 810.507 1108.65 812.785 1108.185 815.062 1108.156 817.291 1108.562 819.47 1108.967 821.65 1109.789 823.694 1111.028 825.601 1112.268 827.508 1113.914 829.145 1115.966 830.513 1117.739 831.696 1119.527 832.65 1121.329 833.375 1123.132 834.099 1124.799 834.52 1126.329 834.636 L1133.181 824.361 1124.993 818.9 1128.122 814.207 1141.318 823.007 1129.179 841.208 Z M903.085 822.771 C900.43 822.786 897.907 822.356 895.515 821.48 892.781 820.479 890.279 818.948 888.009 816.888 885.738 814.828 883.886 812.313 882.45 809.339 881.015 806.366 880.198 803.35 879.997 800.291 879.797 797.231 880.154 794.321 881.071 791.558 881.989 788.795 883.467 786.259 885.509 783.951 887.551 781.643 890.097 779.752 893.146 778.281 896.194 776.809 899.256 775.992 902.333 775.83 905.41 775.667 908.316 776.085 911.05 777.085 913.784 778.086 916.285 779.617 918.556 781.677 920.826 783.737 922.679 786.253 924.114 789.226 925.55 792.2 926.369 795.216 926.569 798.275 926.77 801.334 926.41 804.246 925.493 807.009 924.576 809.772 923.097 812.307 921.056 814.615 919.014 816.923 916.47 818.813 913.421 820.285 910.372 821.756 907.309 822.573 904.232 822.736 903.847 822.756 903.464 822.769 903.085 822.771 Z M1085.786 817.423 L1078.579 814.859 1067.544 772.203 1067.427 772.16 1055.193 806.535 1049.521 804.517 1064.405 762.701 1071.847 765.349 1082.646 807.921 1082.765 807.964 1094.999 773.589 1100.669 775.609 1085.786 817.423 Z M903.724 816.935 C903.864 816.936 904.003 816.934 904.144 816.931 906.397 816.888 908.672 816.313 910.968 815.205 913.264 814.096 915.13 812.674 916.566 810.937 918.001 809.2 919.032 807.298 919.659 805.232 920.286 803.166 920.489 800.99 920.269 798.707 920.048 796.423 919.41 794.19 918.357 792.007 917.303 789.824 915.951 787.936 914.3 786.343 912.649 784.75 910.819 783.556 908.812 782.761 906.804 781.967 904.674 781.591 902.421 781.634 900.168 781.678 897.893 782.255 895.597 783.363 893.301 784.471 891.437 785.893 890.001 787.63 888.566 789.367 887.534 791.269 886.907 793.335 886.28 795.402 886.076 797.575 886.296 799.859 886.517 802.142 887.154 804.377 888.208 806.56 889.262 808.743 890.614 810.631 892.265 812.224 893.916 813.817 895.745 815.01 897.753 815.804 899.635 816.549 901.626 816.927 903.724 816.935 Z M936.855 808.298 L946.798 760.826 952.134 759.695 979.909 799.185 973.04 800.64 966.413 790.828 945.745 795.203 943.724 806.845 936.855 808.298 Z M1038.103 802.923 L1032.175 801.884 1039.831 758.166 1045.759 759.203 1038.103 802.923 Z M1000.068 799.349 C999.823 799.35 999.577 799.349 999.329 799.345 L984.849 799.123 985.53 754.742 1001.013 754.98 C1004.147 755.028 1006.889 755.427 1009.239 756.173 1011.59 756.92 1013.623 757.901 1015.339 759.119 1017.055 760.336 1018.475 761.727 1019.601 763.291 1020.726 764.854 1021.611 766.457 1022.255 768.097 1022.899 769.737 1023.353 771.375 1023.62 773.009 1023.888 774.644 1024.012 776.15 1023.991 777.529 1023.948 780.37 1023.382 783.11 1022.296 785.748 1021.211 788.385 1019.629 790.722 1017.55 792.759 1015.47 794.796 1012.906 796.417 1009.857 797.625 1006.998 798.756 1003.735 799.332 1000.068 799.349 Z M999.015 793.693 C1001.389 793.689 1003.649 793.381 1005.794 792.767 1008.082 792.113 1010.093 791.108 1011.827 789.755 1013.562 788.403 1014.947 786.701 1015.982 784.648 1017.016 782.595 1017.554 780.187 1017.597 777.429 1017.619 776.008 1017.414 774.346 1016.984 772.437 1016.553 770.529 1015.714 768.707 1014.466 766.974 1013.218 765.241 1011.474 763.762 1009.235 762.537 1006.997 761.311 1004.081 760.67 1000.487 760.615 L991.462 760.476 990.952 793.574 998.538 793.689 C998.698 793.691 998.856 793.693 999.015 793.693 Z M946.739 789.609 L963.177 786.13 950.862 767.912 950.739 767.937 946.739 789.609 Z" fill="#ffdd2a" fill-opacity="1" stroke="none"/>
 </g>
</svg>
