<?xml version="1.0" encoding="UTF-8"?>
<svg width="1441px" height="349px" viewBox="0 0 1441 349" xmlns="http://www.w3.org/2000/svg" xmlns:xlink="http://www.w3.org/1999/xlink" version="1.1">
 <!-- Generated by Pixelmator Pro 2.1.2 -->
 <path id="HELLO" d="M1166.311 174.846 C1166.311 158.057 1168.488 141.501 1172.84 125.178 1177.193 108.855 1184.033 94.165 1193.361 81.107 1202.688 68.048 1214.658 57.555 1229.271 49.627 1243.883 41.699 1261.294 37.735 1281.503 37.735 1301.713 37.735 1319.123 41.699 1333.736 49.627 1348.349 57.555 1360.319 68.048 1369.646 81.107 1378.974 94.165 1385.813 108.855 1390.166 125.178 1394.519 141.501 1396.695 158.057 1396.695 174.846 1396.695 191.635 1394.519 208.191 1390.166 224.514 1385.813 240.837 1378.974 255.527 1369.646 268.585 1360.319 281.644 1348.349 292.137 1333.736 300.065 1319.123 307.993 1301.713 311.957 1281.503 311.957 1261.294 311.957 1243.883 307.993 1229.271 300.065 1214.658 292.137 1202.688 281.644 1193.361 268.585 1184.033 255.527 1177.193 240.837 1172.84 224.514 1168.488 208.191 1166.311 191.635 1166.311 174.846 Z M1122.007 174.846 C1122.007 197.543 1125.349 219.384 1132.033 240.37 1138.718 261.357 1148.745 279.933 1162.114 296.101 1175.483 312.268 1192.117 325.093 1212.015 334.576 1231.913 344.059 1255.076 348.8 1281.503 348.8 1307.931 348.8 1331.093 344.059 1350.992 334.576 1370.89 325.093 1387.523 312.268 1400.893 296.101 1414.262 279.933 1424.289 261.357 1430.973 240.37 1437.658 219.384 1441 197.543 1441 174.846 1441 152.149 1437.658 130.308 1430.973 109.322 1424.289 88.335 1414.262 69.759 1400.893 53.591 1387.523 37.424 1370.89 24.521 1350.992 14.883 1331.093 5.245 1307.931 0.426 1281.503 0.426 1255.076 0.426 1231.913 5.245 1212.015 14.883 1192.117 24.521 1175.483 37.424 1162.114 53.591 1148.745 69.759 1138.718 88.335 1132.033 109.322 1125.349 130.308 1122.007 152.149 1122.007 174.846 Z M881.363 8.354 L881.363 341.338 1101.953 341.338 1101.953 304.029 925.667 304.029 925.667 8.354 Z M622.064 8.354 L622.064 341.338 842.654 341.338 842.654 304.029 666.369 304.029 666.369 8.354 Z M337.115 8.354 L337.115 341.338 568.432 341.338 568.432 304.029 381.42 304.029 381.42 188.837 554.441 188.837 554.441 151.528 381.42 151.528 381.42 45.663 567.033 45.663 567.033 8.354 Z M0.4 8.354 L0.4 341.338 44.705 341.338 44.705 188.837 220.058 188.837 220.058 341.338 264.362 341.338 264.362 8.354 220.058 8.354 220.058 151.528 44.705 151.528 44.705 8.354 Z" fill="#000000" fill-opacity="1" stroke="none"/>
</svg>
